<svg width="48" height="48" viewBox="0 0 48 48" fill="none" xmlns="http://www.w3.org/2000/svg">
<g id="Icon" clip-path="url(#clip0_1308_246)">
<g id="Group">
<path id="Vector" d="M47.1754 33.5167L41.785 28.1262C47.9679 15.1521 38.4645 0.00012207 24.0001 0.00012207C9.56083 0.00012207 0.0199878 15.126 6.21527 28.1262L0.824832 33.5167C-0.675356 35.0169 -0.0374805 37.5771 1.99671 38.1966L7.98433 40.0152L9.80299 46.0029C10.42 48.029 12.9749 48.68 14.4829 47.1747L22.3521 39.3056C23.4339 39.3953 24.5294 39.3983 25.6482 39.3056L33.5174 47.1747C35.02 48.6773 37.5791 48.0331 38.1973 46.0029L40.016 40.0152L46.0036 38.1966C48.041 37.5762 48.6731 35.0143 47.1754 33.5167ZM12.4946 45.1855L10.675 39.1978C10.4021 38.2978 9.70183 37.5975 8.80193 37.3239L2.8143 35.5052L7.66108 30.6584C10.2935 34.5658 14.289 37.4823 18.9605 38.7198L12.4946 45.1855ZM9.6933 28.6259C2.62774 17.3742 10.8481 2.81253 24.0001 2.81253C37.2583 2.81253 45.309 17.4752 38.3069 28.6258C31.6772 39.1991 16.3221 39.1977 9.6933 28.6259ZM39.1985 37.3238C38.2985 37.5975 37.5982 38.2978 37.3245 39.1977L35.5059 45.1854L29.0401 38.7196C33.7116 37.4821 37.707 34.5657 40.3395 30.6582L45.1863 35.505L39.1985 37.3238Z" fill="#0083F9"/>
<path id="Vector_2" d="M24.0001 5.62509C14.5895 5.62509 7.78606 14.7597 10.5493 23.7924C12.9035 31.5067 21.2547 35.6056 28.725 32.9328C34.166 30.9855 38.0623 25.7801 38.0623 19.6872C38.0623 11.9333 31.754 5.62509 24.0001 5.62509ZM16.416 27.9876C8.82247 21.0566 13.8179 8.4375 24.0001 8.4375C30.9298 8.4375 36.2049 14.6729 35.1102 21.4515C33.7329 30.2379 23.0382 34.0475 16.416 27.9876Z" fill="#0083F9"/>
<path id="Vector_3" d="M28.2666 15.8841L22.0682 20.485L19.921 18.1971C19.3894 17.6307 18.4996 17.6025 17.9333 18.134C17.367 18.6655 17.3387 19.5555 17.8703 20.1217L20.8749 23.3232C21.3639 23.8444 22.1654 23.9153 22.7383 23.4901L29.9428 18.1425C30.5665 17.6796 30.6967 16.7988 30.2338 16.1751C29.771 15.5516 28.8902 15.4213 28.2666 15.8841Z" fill="#0083F9"/>
</g>
</g>
<defs>
<clipPath id="clip0_1308_246">
<rect width="48" height="48" fill="white"/>
</clipPath>
</defs>
</svg>
