<svg width="126" height="126" viewBox="0 0 126 126" fill="none" xmlns="http://www.w3.org/2000/svg">
<g id="Icon">
<rect id="Rectangle" opacity="0.1" width="126" height="126" rx="16" transform="matrix(-1 0 0 1 126 0)" fill="url(#paint0_linear_1308_551)"/>
<g id="Icon_2">
<path id="Vector" d="M42.6628 69.0546L48.1886 67.3825C56.7393 58.8365 56.2391 59.0083 56.9257 58.8286C54.5604 55.8444 52.15 51.0366 52.15 43.8375C52.15 43.0493 52.7983 42.4147 53.5865 42.4316C57.1248 42.5075 60.6397 41.3874 63.4819 39.2772C63.9797 38.9076 64.6607 38.9076 65.1585 39.2772C68.0073 41.3924 71.5245 42.5161 75.0605 42.4393C75.8361 42.4189 76.4969 43.0483 76.4969 43.8452C76.4969 51.0133 74.133 55.7982 71.7892 58.7812H76.9978C77.5272 58.7812 78.0117 59.0785 78.2515 59.5505L82.1441 67.2117H83.7188C85.528 67.2117 87 68.6837 87 70.493V76.0528C87 78.896 84.6869 81.2091 81.8438 81.2091H81.3231C81.3553 84.4064 78.7634 87 75.5914 87C72.4191 87 69.8275 84.4061 69.8597 81.2091H56.0539C56.0861 84.4064 53.4942 87 50.3222 87C47.1499 87 44.5583 84.4061 44.5905 81.2091H40.4063C39.6297 81.2091 39 80.5794 39 79.8028V73.9899C39 71.701 40.472 69.7176 42.6628 69.0546ZM73.6518 45.2245C70.3384 45.0326 67.0973 43.9572 64.3201 42.1227C61.5474 43.9531 58.3091 45.026 54.9946 45.2169C55.239 50.3908 56.8778 54.6724 59.8752 57.9591C61.6651 59.9217 63.4805 60.9786 64.3289 61.4058C66.2547 60.4547 73.1208 56.2993 73.6518 45.2245ZM72.75 61.5938H69.0789C66.8274 63.5 64.9118 64.2298 64.8129 64.2667C64.4924 64.3861 64.14 64.3848 63.8201 64.2627C63.722 64.2253 61.8311 63.4874 59.5998 61.5938H57.8683L52.3127 67.2118H72.75V61.5938ZM75.5914 84.1875C77.2018 84.1875 78.5121 82.8773 78.5121 81.2668C78.5121 79.6564 77.2018 78.3462 75.5914 78.3462C73.9809 78.3462 72.6707 79.6565 72.6707 81.2668C72.6707 82.8773 73.9809 84.1875 75.5914 84.1875ZM50.3221 84.1875C51.9326 84.1875 53.2428 82.8773 53.2428 81.2668C53.2428 79.6564 51.9326 78.3462 50.3221 78.3462C48.7117 78.3462 47.4014 79.6565 47.4014 81.2668C47.4014 82.8773 48.7117 84.1875 50.3221 84.1875ZM45.3624 78.3966C47.5721 74.5931 53.059 74.5704 55.2819 78.3966H70.6315C72.8412 74.5931 78.3281 74.5704 80.551 78.3966H81.8438C83.1361 78.3966 84.1875 77.3452 84.1875 76.0528V75.75H82.6875C81.9109 75.75 81.2813 75.1204 81.2813 74.3438C81.2813 73.5671 81.9109 72.9375 82.6875 72.9375H84.1875V70.4931C84.1875 70.2346 83.9772 70.0243 83.7188 70.0243H81.2813C80.7518 70.0243 80.2673 69.727 80.0275 69.2551L76.1349 61.5938H75.5625V68.6181C75.5625 69.3947 74.9329 70.0243 74.1563 70.0243H49.1687L43.4773 71.7465C42.8927 71.9234 42.4221 72.3083 42.132 72.8056H43.5938C44.3704 72.8056 45 73.4352 45 74.2119C45 74.9885 44.3704 75.6181 43.5938 75.6181H41.8125V78.3967L45.3624 78.3966Z" fill="#0083F9"/>
<path id="Vector_2" d="M61.8761 53.9162C62.4252 54.4654 63.3156 54.4655 63.8648 53.9162L67.9429 49.8381C68.4921 49.2889 68.4921 48.3986 67.9429 47.8494C67.3938 47.3002 66.5034 47.3002 65.9542 47.8494L62.8704 50.9331L61.9428 50.0056C61.3938 49.4565 60.5033 49.4565 59.9541 50.0056C59.4049 50.5548 59.4049 51.4452 59.9541 51.9944L61.8761 53.9162Z" fill="#0083F9"/>
</g>
</g>
<defs>
<linearGradient id="paint0_linear_1308_551" x1="0" y1="126" x2="126" y2="0" gradientUnits="userSpaceOnUse">
<stop stop-color="#0083F9"/>
<stop offset="1" stop-color="#0083F9" stop-opacity="0.2"/>
</linearGradient>
</defs>
</svg>
