<svg width="48" height="48" viewBox="0 0 48 48" fill="none" xmlns="http://www.w3.org/2000/svg">
<g id="Icon" clip-path="url(#clip0_1301_18193)">
<g id="Group">
<path id="Vector" d="M46.5486 21.8024H41.058L40.6427 18.063C40.4054 15.9277 38.6062 14.3174 36.4578 14.3174H25.0353C26.2765 8.45977 23.2347 2.52218 17.7316 0.11864C16.8061 -0.285645 15.7664 0.393434 15.7664 1.40475V9.9375L12.6788 10.9667L9.59126 9.9375V1.40475C9.59126 0.39465 8.55281 -0.286113 7.62607 0.11864C3.0225 2.12931 0.0478516 6.67431 0.0478516 11.6976C0.0478516 16.4064 2.66303 20.6958 6.78438 22.8707V46.5966C6.78438 47.3716 7.41275 48 8.18782 48H17.1699C17.9449 48 18.5733 47.3716 18.5733 46.5966V41.8249H31.5785V46.503C31.5785 47.2781 32.2069 47.9064 32.982 47.9064H40.467C41.2421 47.9064 41.8705 47.2781 41.8705 46.503V41.0027L45.2019 37.6713C45.465 37.4081 45.613 37.0512 45.613 36.679V30.5974H46.5486C47.3237 30.5974 47.952 29.969 47.952 29.194V23.2059C47.952 22.4308 47.3237 21.8024 46.5486 21.8024ZM45.1452 24.6093V27.7904C44.3347 27.7904 42.5156 27.7904 41.7232 27.7904L41.3698 24.6093H45.1452ZM36.4578 17.1243C37.1741 17.1243 37.7738 17.6611 37.853 18.3729C38.6818 25.8351 37.635 16.4105 38.899 27.7904H18.5733V22.8707C21.0173 21.581 22.9315 19.5476 24.0848 17.1243H36.4578ZM15.7664 45.1931H9.59126V21.9899C9.59126 21.4321 9.26099 20.9273 8.74985 20.7039C5.16873 19.1388 2.85474 15.6037 2.85474 11.6976C2.85474 8.56175 4.34482 5.6657 6.78438 3.8358V10.9491C6.78438 11.5532 7.17098 12.0894 7.74405 12.2805L12.2351 13.7775C12.5231 13.8736 12.8346 13.8736 13.1226 13.7775L17.6136 12.2805C18.1867 12.0894 18.5733 11.5532 18.5733 10.9491V3.83571C21.0129 5.6657 22.5029 8.56166 22.5029 11.6975C22.5029 15.6037 20.189 19.1388 16.6078 20.7038C16.0967 20.9271 15.7664 21.432 15.7664 21.9898V45.1931ZM34.3854 45.0996V41.8249H39.0636V45.0996H34.3854ZM42.8061 36.0975L39.8857 39.0179H18.5733V30.5972H42.8061V36.0975Z" fill="#0083F9"/>
<path id="Vector_2" d="M38.2215 33.0299H33.7305C32.9554 33.0299 32.327 33.6583 32.327 34.4334C32.327 35.2085 32.9554 35.8368 33.7305 35.8368H38.2215C38.9966 35.8368 39.6249 35.2085 39.6249 34.4334C39.6249 33.6583 38.9966 33.0299 38.2215 33.0299Z" fill="#0083F9"/>
</g>
</g>
<defs>
<clipPath id="clip0_1301_18193">
<rect width="48" height="48" fill="white"/>
</clipPath>
</defs>
</svg>
