<svg width="91" height="48" viewBox="0 0 91 48" fill="none" xmlns="http://www.w3.org/2000/svg">
<g id="Logo">
<g id="Logo_2">
<path id="Vector" d="M90.5422 34.7734H0.138062V48H90.5422V34.7734Z" fill="#EC1D32"/>
<g id="Group">
<g id="Group_2">
<path id="Path_15603" d="M88.2039 11.5962C86.5552 9.98123 84.4989 9.16299 82.0809 9.16299C79.663 9.16299 77.6036 9.98429 75.9426 11.6024C74.9344 12.5677 74.1958 13.7813 73.8005 15.1205L70.4326 17.3453C70.3406 15.05 69.5071 13.1193 67.9503 11.5962C66.3016 9.98123 64.2453 9.16299 61.8304 9.16299C59.4155 9.16299 57.3562 9.98429 55.6921 11.6024C54.0281 13.2205 53.1822 15.3074 53.1853 17.7866C53.1853 20.2658 54.0281 22.3528 55.7013 23.977C56.4092 24.6788 57.2366 25.2488 58.1437 25.6625L54.3223 28.2092V33.2503L66.654 25.0373L66.7459 24.9577C67.1719 24.6635 67.5734 24.3325 67.9442 23.9678L73.7362 20.2015C74.11 21.6388 74.8731 22.9443 75.9426 23.977C77.6036 25.5982 79.6661 26.4225 82.0687 26.4225C84.4743 26.4225 86.5307 25.5951 88.1886 23.9709C89.8465 22.3436 90.6831 20.2658 90.6831 17.7774C90.6831 15.289 89.8557 13.2205 88.2039 11.6024V11.5962ZM64.8275 21.0779C64.0736 21.8992 63.093 22.3007 61.8181 22.3007C60.5709 22.3007 59.5626 21.8901 58.818 21.0841C58.0733 20.275 57.6902 19.1595 57.6871 17.7866C57.6841 16.4106 58.0641 15.3013 58.8149 14.4861C59.5657 13.6709 60.5647 13.2634 61.8181 13.2634C63.0685 13.2634 64.0828 13.674 64.8245 14.48C65.5661 15.289 65.9522 16.4045 65.9522 17.7774C65.9522 19.1503 65.5783 20.2628 64.8306 21.0779H64.8275ZM85.0719 21.0779C84.3211 21.8992 83.3374 22.3007 82.0625 22.3007C80.8122 22.3007 79.804 21.8901 79.0593 21.0841C78.3146 20.2781 77.9315 19.1595 77.9315 17.7836C77.9315 16.4076 78.3085 15.2982 79.0562 14.483C79.804 13.6679 80.7908 13.2603 82.0595 13.2603C83.3098 13.2603 84.3211 13.6709 85.0627 14.4769C85.8043 15.286 86.1935 16.4015 86.1935 17.7744C86.1935 19.1503 85.8197 20.2597 85.0719 21.0749V21.0779Z" fill="#171D35"/>
<path id="Path_15604" d="M45.9009 12.9446V20.2168H41.5983C41.4451 20.2168 41.2888 20.2229 41.1355 20.2383V10.1069L36.7655 13.2726V21.7062C36.7655 22.4907 36.7073 24.0046 36.5878 24.593C36.4866 25.1477 36.2537 25.6717 35.9136 26.1222C35.6163 26.4869 35.2516 26.7933 34.841 27.0232L30.7988 28.8558L30.8111 33.14C30.8111 33.14 35.9657 30.8722 36.5387 30.6118C38.6134 29.7874 40.1549 28.0038 40.6667 25.828C40.7647 25.4633 40.8352 24.2406 40.9118 23.833L40.9455 23.8422C41.1631 23.8728 41.3807 23.8851 41.6014 23.882H50.2771V10.1069L45.904 12.9446H45.9009Z" fill="#171D35"/>
<path id="Path_15605" d="M9.53701 21.127C8.44909 20.8389 7.56037 20.4099 6.9015 19.8613C6.25181 19.3312 5.76455 18.6324 5.48874 17.8387C5.18535 16.7202 5.05664 15.5587 5.1118 14.4003V8.97605L0.472077 11.7066C0.374012 12.1908 0.288205 12.6811 0.211591 13.1775C0.0798154 14.0019 0.00933088 14.8324 0.000137239 15.666C-0.00599185 16.9929 0.193204 18.3137 0.591595 19.5763C0.986921 20.8021 1.6887 21.9084 2.63258 22.791C3.60098 23.7104 4.93406 24.4612 6.60117 25.019C6.88004 25.1109 7.17424 25.1875 7.4807 25.2702L12.5433 21.5346C11.529 21.5039 10.5177 21.366 9.53394 21.1239L9.53701 21.127Z" fill="#171D35"/>
<path id="Path_15606" d="M30.1951 14.0663C29.763 12.0988 28.3073 10.5175 26.3859 9.91688C25.3255 9.53381 23.9741 9.34381 22.3744 9.34381C21.3386 9.34381 20.3027 9.40816 19.2761 9.53687C18.3169 9.66252 17.3271 9.83413 16.3372 10.0425V21.5622H13.5454V25.8648H21.3815V13.7874H21.5929C21.691 13.7874 21.789 13.7843 21.8871 13.769C22.0005 13.7568 22.1169 13.7506 22.2334 13.7506C23.4286 13.7506 24.2836 14.0448 24.777 14.624C25.2704 15.2032 25.5002 16.141 25.5002 17.4771V25.8586H30.5812V17.4342C30.5935 16.3003 30.4648 15.1664 30.1982 14.0632L30.1951 14.0663Z" fill="#171D35"/>
<path id="Path_15607" d="M5.88098 27.7832L12.5617 22.8554L12.5678 28.3991L5.88405 33.3361V27.7832H5.88098Z" fill="#EC1D32"/>
<path id="Path_15608" d="M5.88098 27.7832C5.88098 27.8843 9.44505 30.7068 9.44505 30.7068L5.88405 33.3361V28.0988" fill="#AD1E2E"/>
<path id="Path_15609" d="M45.3492 4.92779L52.03 0V5.54377L45.3523 10.4808V4.92779H45.3492Z" fill="#171D35"/>
<path id="Path_15610" d="M45.3492 4.9278C45.3492 5.02586 48.9133 7.84831 48.9133 7.84831L45.3523 10.4808V5.24038" fill="#171D35"/>
</g>
<g id="Group_3">
<path id="Vector_2" d="M3.22109 43.7893C3.22109 43.4369 3.23948 43.1335 3.27626 42.8822C3.31303 42.6309 3.38658 42.4103 3.4969 42.2233C3.60416 42.0364 3.75433 41.877 3.94126 41.7453C4.1282 41.6135 4.3703 41.4878 4.66143 41.3683C4.73498 40.8872 4.86369 40.4827 5.0445 40.1578C5.22531 39.8299 5.42757 39.5694 5.65435 39.3702C5.88112 39.171 6.11709 39.027 6.36532 38.9412C6.61355 38.8554 6.84339 38.8125 7.05178 38.8125C7.35823 38.8125 7.64017 38.8676 7.89759 38.981C8.15502 39.0944 8.36953 39.2507 8.55034 39.453C8.73115 39.6552 8.87212 39.9004 8.97325 40.1854C9.07438 40.4704 9.12648 40.783 9.12648 41.1201C9.12648 41.7974 8.95793 42.3306 8.62389 42.7259C8.28986 43.1212 7.7842 43.3174 7.10694 43.3174C6.46951 43.3174 5.80757 43.0906 5.12111 42.6401C4.97095 42.7167 4.86369 42.8454 4.79934 43.0293C4.73498 43.2132 4.70434 43.4737 4.70434 43.8138V47.6568H3.21497V43.7893H3.22109ZM7.7413 41.0833C7.7413 40.8443 7.67082 40.6267 7.52678 40.4367C7.38275 40.2467 7.18049 40.1486 6.91694 40.1486C6.69016 40.1486 6.47564 40.259 6.27032 40.4765C6.06193 40.6941 5.93015 41.0619 5.86886 41.5798C6.06499 41.6932 6.26725 41.7851 6.47871 41.8556C6.69016 41.9261 6.87097 41.9628 7.02113 41.9628C7.23259 41.9628 7.4042 41.8832 7.53904 41.7207C7.67388 41.5583 7.7413 41.3469 7.7413 41.0833Z" fill="white"/>
<path id="Vector_3" d="M14.4373 43.1795C14.3331 43.9977 13.996 44.5953 13.4291 44.9661C12.8621 45.3369 12.0102 45.5238 10.8763 45.5238H10.527V44.1479H10.7874C11.1797 44.1479 11.5046 44.1264 11.7681 44.0804C12.0317 44.0345 12.2462 43.9701 12.4147 43.8843C12.5833 43.7985 12.7089 43.6974 12.7917 43.5809C12.8744 43.4645 12.9265 43.3327 12.948 43.1795H12.2492C11.9183 43.1795 11.6149 43.1427 11.336 43.0661C11.0571 42.9925 10.8181 42.8699 10.6158 42.7014C10.4136 42.5328 10.2542 42.3153 10.1439 42.0486C10.0305 41.782 9.97534 41.4603 9.97534 41.0864C9.97534 40.7861 10.0274 40.4888 10.1286 40.1946C10.2297 39.9004 10.3768 39.6399 10.5729 39.407C10.7691 39.1741 11.0081 38.9872 11.2931 38.8493C11.5781 38.7114 11.9029 38.6409 12.2707 38.6409C12.6844 38.6409 13.0307 38.7114 13.3096 38.8554C13.5884 38.9994 13.8183 39.1986 13.9899 39.4591C14.1615 39.7196 14.2872 40.026 14.3607 40.3846C14.4343 40.7401 14.4741 41.1354 14.4741 41.5614V41.8893H15.2985C15.3598 41.8893 15.4149 41.8954 15.467 41.9077C15.5191 41.9199 15.5651 41.9444 15.608 41.9874C15.6509 42.0303 15.6815 42.0915 15.703 42.1743C15.7244 42.257 15.7367 42.3704 15.7367 42.5114C15.7367 42.7688 15.6999 42.9435 15.6294 43.0416C15.5589 43.1396 15.4486 43.1887 15.2954 43.1887H14.4373V43.1795ZM11.4157 40.9485C11.4157 41.3101 11.4923 41.5553 11.6455 41.687C11.7987 41.8188 12.0041 41.8832 12.2584 41.8832H13.0031V41.2059C13.0031 40.8443 12.948 40.547 12.8346 40.311C12.7212 40.0751 12.5097 39.9556 12.2033 39.9556C11.9244 39.9556 11.7252 40.0506 11.5996 40.2375C11.4739 40.4244 11.4126 40.6604 11.4126 40.9485H11.4157Z" fill="white"/>
<path id="Vector_4" d="M15.3047 43.1795C15.2434 43.1795 15.1882 43.1733 15.1361 43.1611C15.084 43.1488 15.0381 43.1243 14.9952 43.0814C14.9523 43.0385 14.9216 42.9772 14.9002 42.8945C14.8787 42.8117 14.8665 42.6983 14.8665 42.5574C14.8665 42.303 14.9032 42.1253 14.9737 42.0272C15.0442 41.9291 15.1545 41.8801 15.3077 41.8801H16.9749C17.0362 41.8801 17.0913 41.8862 17.1434 41.8985C17.1955 41.9107 17.2415 41.9353 17.2844 41.9782C17.3273 42.0211 17.3579 42.0824 17.3794 42.1651C17.4008 42.2478 17.4131 42.3612 17.4131 42.5022C17.4131 42.7596 17.3763 42.9343 17.3058 43.0324C17.2353 43.1304 17.125 43.1795 16.9718 43.1795H15.3047Z" fill="white"/>
<path id="Vector_5" d="M16.9747 43.1795C16.9134 43.1795 16.8583 43.1733 16.8062 43.1611C16.7541 43.1488 16.7081 43.1243 16.6652 43.0814C16.6223 43.0385 16.5917 42.9772 16.5702 42.8945C16.5488 42.8117 16.5365 42.6983 16.5365 42.5574C16.5365 42.303 16.5733 42.1253 16.6438 42.0272C16.7142 41.9291 16.8246 41.8801 16.9778 41.8801H18.6449C18.7062 41.8801 18.7614 41.8862 18.8135 41.8985C18.8656 41.9107 18.9115 41.9353 18.9544 41.9782C18.9973 42.0211 19.028 42.0824 19.0494 42.1651C19.0709 42.2478 19.0831 42.3612 19.0831 42.5022C19.0831 42.7596 19.0464 42.9343 18.9759 43.0324C18.9054 43.1304 18.7951 43.1795 18.6418 43.1795H16.9747Z" fill="white"/>
<path id="Vector_6" d="M18.642 43.1795C18.5807 43.1795 18.5255 43.1733 18.4734 43.1611C18.4213 43.1488 18.3753 43.1243 18.3324 43.0814C18.2895 43.0385 18.2589 42.9772 18.2374 42.8945C18.216 42.8117 18.2037 42.6983 18.2037 42.5574C18.2037 42.303 18.2405 42.1253 18.311 42.0272C18.3815 41.9291 18.4918 41.8801 18.645 41.8801H20.3121C20.3734 41.8801 20.4286 41.8862 20.4807 41.8985C20.5328 41.9107 20.5788 41.9353 20.6217 41.9782C20.6646 42.0211 20.6952 42.0824 20.7167 42.1651C20.7381 42.2478 20.7504 42.3612 20.7504 42.5022C20.7504 42.7596 20.7136 42.9343 20.6431 43.0324C20.5726 43.1304 20.4623 43.1795 20.3091 43.1795H18.642Z" fill="white"/>
<path id="Vector_7" d="M22.9353 41.8832C23.0916 41.8832 23.2448 41.8525 23.3857 41.7882C23.5267 41.7238 23.6003 41.5951 23.6003 41.399C23.6003 41.2641 23.5145 41.0803 23.3459 40.8535C23.1774 40.6236 22.9536 40.3815 22.6748 40.1272C22.3959 39.8728 22.0803 39.6185 21.7278 39.3672C21.3754 39.1159 21.0169 38.8952 20.6583 38.7083C20.7104 38.4601 20.7717 38.2547 20.8452 38.0954C20.9188 37.936 20.9893 37.8043 21.0659 37.7062C21.1394 37.6081 21.213 37.5346 21.2865 37.4855C21.357 37.4365 21.4152 37.3997 21.4612 37.3783L25.3961 35.6437V37.1546L22.7361 38.2578V38.2915C23.1866 38.5857 23.5604 38.8738 23.8516 39.1588C24.1458 39.4438 24.3787 39.7227 24.5564 39.9923C24.7341 40.262 24.8537 40.5194 24.9242 40.7646C24.9916 41.0098 25.0253 41.2365 25.0253 41.448C25.0253 41.6288 25.0008 41.8188 24.9517 42.0241C24.9027 42.2264 24.8077 42.4164 24.6637 42.588C24.5196 42.7627 24.3204 42.9037 24.06 43.017C23.7995 43.1304 23.4593 43.1856 23.0395 43.1856H20.312C20.2507 43.1856 20.1956 43.1795 20.1435 43.1672C20.0914 43.155 20.0454 43.1304 20.0025 43.0875C19.9596 43.0446 19.9289 42.9833 19.9075 42.9006C19.886 42.8179 19.8738 42.7045 19.8738 42.5635C19.8738 42.3091 19.9106 42.1314 19.981 42.0333C20.0515 41.9353 20.1618 41.8862 20.3151 41.8862H22.9414L22.9353 41.8832Z" fill="white"/>
<path id="Vector_8" d="M26.4073 41.4449H28.1756V43.1825H26.4073V41.4449Z" fill="white"/>
</g>
</g>
</g>
</g>
</svg>
