<svg width="92" height="48" viewBox="0 0 92 48" fill="none" xmlns="http://www.w3.org/2000/svg">
<g id="Motory AR" opacity="0.5">
<path id="Vector" d="M90.3311 34.6329H0.710876V47.7448H90.3311V34.6329Z" fill="#8D96AB"/>
<g id="Logo">
<g id="Group">
<path id="Path_15603" d="M88.0132 11.6567C86.3787 10.0557 84.3403 9.24457 81.9433 9.24457C79.5463 9.24457 77.5048 10.0587 75.8582 11.6628C74.8587 12.6198 74.1266 13.8228 73.7347 15.1504L70.396 17.356C70.3048 15.0805 69.4785 13.1666 67.9352 11.6567C66.3008 10.0557 64.2623 9.24457 61.8684 9.24457C59.4744 9.24457 57.4329 10.0587 55.7833 11.6628C54.1337 13.2668 53.2952 15.3357 53.2982 17.7934C53.2982 20.2512 54.1337 22.32 55.7924 23.9301C56.4942 24.6258 57.3144 25.1909 58.2137 25.601L54.4253 28.1256V33.1231L66.6501 24.9813L66.7413 24.9023C67.1635 24.6106 67.5615 24.2825 67.9291 23.921L73.6709 20.1874C74.0415 21.6122 74.798 22.9063 75.8582 23.9301C77.5048 25.5372 79.5494 26.3544 81.9311 26.3544C84.316 26.3544 86.3544 25.5342 87.998 23.9241C89.6415 22.3109 90.4709 20.2512 90.4709 17.7843C90.4709 15.3175 89.6506 13.2668 88.0132 11.6628V11.6567ZM64.8395 21.0562C64.0921 21.8704 63.12 22.2684 61.8562 22.2684C60.6197 22.2684 59.6203 21.8613 58.882 21.0623C58.1438 20.2603 57.7641 19.1544 57.761 17.7934C57.758 16.4294 58.1347 15.3296 58.879 14.5215C59.6233 13.7134 60.6137 13.3094 61.8562 13.3094C63.0957 13.3094 64.1013 13.7165 64.8365 14.5155C65.5716 15.3175 65.9544 16.4233 65.9544 17.7843C65.9544 19.1453 65.5838 20.2481 64.8425 21.0562H64.8395ZM84.9084 21.0562C84.1641 21.8704 83.1889 22.2684 81.9251 22.2684C80.6856 22.2684 79.6861 21.8613 78.9478 21.0623C78.2096 20.2633 77.8299 19.1544 77.8299 17.7904C77.8299 16.4263 78.2035 15.3266 78.9448 14.5185C79.6861 13.7104 80.6643 13.3063 81.922 13.3063C83.1615 13.3063 84.1641 13.7134 84.8992 14.5124C85.6344 15.3144 86.0203 16.4203 86.0203 17.7813C86.0203 19.1453 85.6496 20.2451 84.9084 21.0532V21.0562Z" fill="#8D96AB"/>
<path id="Path_15604" d="M46.077 12.9934V20.2025H41.8117C41.6598 20.2025 41.5048 20.2086 41.3529 20.2238V10.1802L37.0208 13.3185V21.679C37.0208 22.4567 36.9631 23.9574 36.8446 24.5407C36.7443 25.0906 36.5134 25.6101 36.1762 26.0567C35.8815 26.4182 35.52 26.722 35.1129 26.9499L31.1058 28.7666L31.118 33.0137C31.118 33.0137 36.2279 30.7656 36.796 30.5073C38.8527 29.6901 40.3808 27.922 40.8881 25.765C40.9853 25.4035 41.0552 24.1914 41.1312 23.7873L41.1646 23.7964C41.3803 23.8268 41.596 23.839 41.8147 23.8359H50.4152V10.1802L46.08 12.9934H46.077Z" fill="#8D96AB"/>
<path id="Path_15605" d="M10.0283 21.1048C8.94987 20.8193 8.06885 20.394 7.41569 19.8502C6.77164 19.3246 6.2886 18.6319 6.01518 17.8451C5.71442 16.7362 5.58683 15.5848 5.64151 14.4365V9.05927L1.04202 11.7661C0.944805 12.2461 0.859741 12.7322 0.783792 13.2243C0.653159 14.0415 0.583286 14.8648 0.574172 15.6912C0.568096 17.0066 0.765564 18.316 1.1605 19.5676C1.5524 20.7828 2.2481 21.8795 3.18379 22.7545C4.14379 23.6659 5.46531 24.4102 7.11797 24.9631C7.39442 25.0542 7.68607 25.1302 7.98987 25.2122L13.0086 21.5089C12.003 21.4785 11.0005 21.3418 10.0253 21.1018L10.0283 21.1048Z" fill="#8D96AB"/>
<path id="Path_15606" d="M30.5073 14.1053C30.079 12.155 28.6359 10.5874 26.7311 9.99193C25.68 9.61218 24.3402 9.42383 22.7544 9.42383C21.7276 9.42383 20.7007 9.48763 19.683 9.61522C18.7321 9.73978 17.7509 9.9099 16.7696 10.1165V21.5362H14.002V25.8015H21.7701V13.8289H21.9797C22.077 13.8289 22.1742 13.8259 22.2714 13.8107C22.3838 13.7985 22.4992 13.7924 22.6147 13.7924C23.7995 13.7924 24.6471 14.0841 25.1362 14.6583C25.6253 15.2324 25.8532 16.1621 25.8532 17.4866V25.7955H30.8901V17.4441C30.9023 16.32 30.7747 15.196 30.5104 14.1023L30.5073 14.1053Z" fill="#8D96AB"/>
<path id="Path_15607" d="M6.40405 27.7033L13.0268 22.8182L13.0329 28.3139L6.40709 33.2081V27.7033H6.40405Z" fill="#8D96AB"/>
<path id="Path_15608" d="M6.40405 27.7033C6.40405 27.8036 9.93722 30.6015 9.93722 30.6015L6.40709 33.2081V28.0162" fill="#8D96AB"/>
<path id="Path_15609" d="M45.5302 5.04607L52.1529 0.161011V5.65671L45.5332 10.5509V5.04607H45.5302Z" fill="#8D96AB"/>
<path id="Path_15610" d="M45.5302 5.04608C45.5302 5.1433 49.0633 7.94127 49.0633 7.94127L45.5332 10.5509V5.35595" fill="#8D96AB"/>
</g>
<g id="Group_2">
<path id="Vector_2" d="M3.76706 43.5706C3.76706 43.2213 3.78529 42.9205 3.82175 42.6714C3.8582 42.4223 3.93111 42.2035 4.04048 42.0182C4.14681 41.8329 4.29567 41.6749 4.48099 41.5443C4.6663 41.4137 4.9063 41.2891 5.19491 41.1706C5.26782 40.6937 5.39542 40.2927 5.57466 39.9706C5.7539 39.6456 5.9544 39.3873 6.17921 39.1899C6.40403 38.9924 6.63795 38.8496 6.88403 38.7646C7.1301 38.6795 7.35795 38.637 7.56453 38.637C7.86833 38.637 8.14782 38.6916 8.40301 38.8041C8.6582 38.9165 8.87086 39.0714 9.0501 39.2719C9.22934 39.4724 9.36909 39.7154 9.46934 39.998C9.5696 40.2805 9.62124 40.5904 9.62124 40.9246C9.62124 41.596 9.45415 42.1246 9.12301 42.5165C8.79187 42.9084 8.29061 43.1028 7.61922 43.1028C6.98732 43.1028 6.33111 42.878 5.65061 42.4314C5.50175 42.5073 5.39542 42.6349 5.33162 42.8172C5.26782 42.9995 5.23744 43.2577 5.23744 43.5949V47.4046H3.76099V43.5706H3.76706ZM8.24808 40.8881C8.24808 40.6511 8.1782 40.4354 8.03542 40.2471C7.89263 40.0587 7.69213 39.9615 7.43086 39.9615C7.20605 39.9615 6.99339 40.0709 6.78985 40.2866C6.58327 40.5023 6.45263 40.8668 6.39187 41.3803C6.5863 41.4927 6.78681 41.5838 6.99643 41.6537C7.20605 41.7235 7.38529 41.76 7.53415 41.76C7.74377 41.76 7.9139 41.681 8.04757 41.52C8.18124 41.359 8.24808 41.1494 8.24808 40.8881Z" fill="white"/>
<path id="Vector_3" d="M14.8861 42.9661C14.7828 43.7772 14.4486 44.3696 13.8866 44.7372C13.3245 45.1048 12.48 45.2901 11.3559 45.2901H11.0096V43.9261H11.2678C11.6567 43.9261 11.9787 43.9048 12.24 43.8593C12.5013 43.8137 12.7139 43.7499 12.881 43.6648C13.0481 43.5798 13.1726 43.4795 13.2547 43.3641C13.3367 43.2486 13.3883 43.118 13.4096 42.9661H12.7169C12.3888 42.9661 12.0881 42.9296 11.8116 42.8537C11.5352 42.7808 11.2982 42.6593 11.0977 42.4922C10.8972 42.3251 10.7392 42.1094 10.6299 41.8451C10.5175 41.5808 10.4628 41.2618 10.4628 40.8912C10.4628 40.5934 10.5144 40.2988 10.6147 40.0071C10.7149 39.7155 10.8607 39.4572 11.0552 39.2263C11.2496 38.9955 11.4866 38.8101 11.7691 38.6734C12.0516 38.5367 12.3737 38.4669 12.7382 38.4669C13.1483 38.4669 13.4916 38.5367 13.7681 38.6795C14.0445 38.8223 14.2724 39.0198 14.4425 39.278C14.6126 39.5362 14.7372 39.84 14.8101 40.1955C14.883 40.5479 14.9225 40.9398 14.9225 41.362V41.6871H15.7397C15.8005 41.6871 15.8552 41.6932 15.9068 41.7053C15.9585 41.7175 16.004 41.7418 16.0466 41.7843C16.0891 41.8269 16.1195 41.8876 16.1407 41.9696C16.162 42.0517 16.1742 42.1641 16.1742 42.3038C16.1742 42.559 16.1377 42.7322 16.0678 42.8294C15.998 42.9266 15.8886 42.9752 15.7367 42.9752H14.8861V42.9661ZM11.8906 40.7545C11.8906 41.1129 11.9666 41.356 12.1185 41.4866C12.2704 41.6172 12.4739 41.681 12.7261 41.681H13.4643V41.0096C13.4643 40.6512 13.4096 40.3565 13.2972 40.1226C13.1848 39.8886 12.9752 39.7701 12.6714 39.7701C12.3949 39.7701 12.1975 39.8643 12.0729 40.0496C11.9483 40.235 11.8876 40.4689 11.8876 40.7545H11.8906Z" fill="white"/>
<path id="Vector_4" d="M15.7458 42.9661C15.685 42.9661 15.6303 42.96 15.5787 42.9478C15.527 42.9357 15.4815 42.9114 15.4389 42.8689C15.3964 42.8263 15.366 42.7656 15.3448 42.6835C15.3235 42.6015 15.3113 42.4891 15.3113 42.3494C15.3113 42.0972 15.3478 41.921 15.4177 41.8238C15.4875 41.7266 15.5969 41.678 15.7488 41.678H17.4015C17.4622 41.678 17.5169 41.6841 17.5686 41.6962C17.6202 41.7084 17.6658 41.7327 17.7083 41.7752C17.7508 41.8177 17.7812 41.8785 17.8025 41.9605C17.8237 42.0425 17.8359 42.1549 17.8359 42.2947C17.8359 42.5499 17.7994 42.723 17.7296 42.8203C17.6597 42.9175 17.5503 42.9661 17.3984 42.9661H15.7458Z" fill="white"/>
<path id="Vector_5" d="M17.4015 42.9661C17.3407 42.9661 17.286 42.96 17.2344 42.9478C17.1827 42.9357 17.1372 42.9114 17.0946 42.8689C17.0521 42.8263 17.0217 42.7656 17.0005 42.6835C16.9792 42.6015 16.967 42.4891 16.967 42.3494C16.967 42.0972 17.0035 41.921 17.0734 41.8238C17.1432 41.7266 17.2526 41.678 17.4045 41.678H19.0572C19.1179 41.678 19.1726 41.6841 19.2243 41.6962C19.2759 41.7084 19.3215 41.7327 19.364 41.7752C19.4065 41.8177 19.4369 41.8785 19.4582 41.9605C19.4794 42.0425 19.4916 42.1549 19.4916 42.2947C19.4916 42.5499 19.4551 42.723 19.3853 42.8203C19.3154 42.9175 19.206 42.9661 19.0541 42.9661H17.4015Z" fill="white"/>
<path id="Vector_6" d="M19.0542 42.9661C18.9934 42.9661 18.9387 42.96 18.8871 42.9478C18.8354 42.9357 18.7899 42.9114 18.7473 42.8689C18.7048 42.8263 18.6744 42.7656 18.6532 42.6835C18.6319 42.6015 18.6198 42.4891 18.6198 42.3494C18.6198 42.0972 18.6562 41.921 18.7261 41.8238C18.796 41.7266 18.9053 41.678 19.0572 41.678H20.7099C20.7706 41.678 20.8253 41.6841 20.877 41.6962C20.9286 41.7084 20.9742 41.7327 21.0167 41.7752C21.0592 41.8177 21.0896 41.8785 21.1109 41.9605C21.1322 42.0425 21.1443 42.1549 21.1443 42.2947C21.1443 42.5499 21.1079 42.723 21.038 42.8203C20.9681 42.9175 20.8587 42.9661 20.7068 42.9661H19.0542Z" fill="white"/>
<path id="Vector_7" d="M23.3103 41.681C23.4653 41.681 23.6172 41.6507 23.7569 41.5869C23.8967 41.5231 23.9696 41.3955 23.9696 41.201C23.9696 41.0674 23.8845 40.8851 23.7174 40.6603C23.5503 40.4324 23.3286 40.1924 23.0521 39.9403C22.7756 39.6881 22.4627 39.436 22.1134 39.1869C21.764 38.9378 21.4086 38.719 21.0531 38.5337C21.1048 38.2876 21.1655 38.0841 21.2384 37.9261C21.3113 37.7681 21.3812 37.6375 21.4572 37.5403C21.5301 37.4431 21.603 37.3702 21.6759 37.3216C21.7458 37.2729 21.8035 37.2365 21.8491 37.2152L25.7498 35.4957V36.9934L23.1129 38.0871V38.1205C23.5594 38.4122 23.9301 38.6978 24.2187 38.9803C24.5103 39.2628 24.7412 39.5393 24.9174 39.8066C25.0936 40.074 25.2121 40.3291 25.282 40.5722C25.3488 40.8152 25.3822 41.04 25.3822 41.2497C25.3822 41.4289 25.3579 41.6172 25.3093 41.8208C25.2607 42.0213 25.1665 42.2097 25.0237 42.3798C24.881 42.5529 24.6835 42.6927 24.4253 42.8051C24.167 42.9175 23.8298 42.9722 23.4136 42.9722H20.7098C20.6491 42.9722 20.5944 42.9661 20.5427 42.954C20.4911 42.9418 20.4455 42.9175 20.403 42.875C20.3605 42.8324 20.3301 42.7717 20.3088 42.6897C20.2875 42.6076 20.2754 42.4952 20.2754 42.3555C20.2754 42.1033 20.3118 41.9271 20.3817 41.8299C20.4516 41.7327 20.561 41.6841 20.7129 41.6841H23.3164L23.3103 41.681Z" fill="white"/>
<path id="Vector_8" d="M26.7524 41.2466H28.5053V42.9691H26.7524V41.2466Z" fill="white"/>
</g>
</g>
</g>
</svg>
